<?xml version="1.0" standalone="no"?>
<!DOCTYPE svg PUBLIC "-//W3C//DTD SVG 20010904//EN"
 "http://www.w3.org/TR/2001/REC-SVG-20010904/DTD/svg10.dtd">
<svg version="1.0" xmlns="http://www.w3.org/2000/svg"
 width="240.000000pt" height="240.000000pt" viewBox="0 0 240.000000 240.000000"
 preserveAspectRatio="xMidYMid meet">
<metadata>
Created by potrace 1.11, written by Peter Selinger 2001-2013
</metadata>
<g transform="translate(0.000000,240.000000) scale(0.100000,-0.100000)"
fill="#000000" stroke="none">
<path d="M1004 2385 c-370 -63 -687 -295 -872 -638 -43 -78 -98 -244 -116
-347 -19 -111 -15 -337 8 -444 105 -486 489 -855 981 -940 104 -18 290 -18
395 0 453 79 827 413 953 854 33 114 37 143 42 300 4 154 -10 263 -50 389
-132 415 -468 721 -900 817 -96 21 -339 26 -441 9z m263 -581 c99 -63 55 -227
-60 -227 -72 0 -128 53 -130 122 -2 96 108 158 190 105z m33 -728 c0 -358 -3
-344 65 -366 34 -11 35 -13 35 -61 l0 -49 -201 0 -200 0 3 51 c3 49 4 51 42
64 21 8 43 20 47 27 5 7 8 126 6 263 l-2 250 -47 24 c-47 23 -48 24 -48 72 l0
49 150 0 150 0 0 -324z"/>
</g>
</svg>
